# Blender v2.78 (sub 0) OBJ File: 'cat_model head.blend'
# www.blender.org
mtllib cat_model head.mtl
o Plane
v 0.192991 -0.299608 0.996088
v 0.326676 1.089116 0.201440
v 0.840712 0.646407 0.169051
v 0.230628 -0.111723 1.022961
v 0.722106 -0.293150 0.427643
v 0.723154 -0.507820 -0.146924
v 0.518134 -0.611938 -0.270680
v 0.109701 -0.714861 0.473883
v 0.504000 -0.652688 0.208926
v 0.936940 -0.277698 -0.141205
v 0.269032 0.640063 0.561836
v 0.286537 0.185446 0.881811
v 0.772052 0.100078 0.463420
v 0.548398 1.242746 0.173302
v 0.980772 -0.005423 -0.141504
v 0.992870 1.138812 -0.022160
v 0.146761 -0.480617 -0.602457
v 0.511574 -0.212979 -0.569803
v 0.403837 0.236370 -0.693178
v 0.231276 0.412467 -0.647604
v 0.197167 -0.781225 -0.271269
v 0.418464 1.052181 -0.310117
v 0.909899 0.791269 -0.302104
v 0.308892 0.442674 0.720909
v 0.551185 0.153052 0.700213
v 0.613726 0.699119 0.309930
v 0.152125 -0.502376 0.841375
v 0.421765 -0.305565 0.783575
v 0.867433 0.400601 0.306009
v 0.757825 -0.112146 0.438555
v 0.484359 -0.050415 0.808243
v 1.058231 -0.271551 -0.000000
v 0.644348 -0.465733 0.370995
v 0.288649 -0.686208 0.383917
v 0.849982 -0.365780 -0.177936
v 0.165030 -0.829224 0.165750
v 0.591318 -0.563901 -0.214398
v 0.332357 -0.846830 -0.005854
v 0.737552 -0.616733 -0.008971
v 0.233450 -0.846830 0.002333
v 0.370649 0.904865 0.314201
v 0.463776 1.244200 0.244765
v 1.065070 0.092095 0.080058
v 1.008028 1.243204 -0.081702
v 0.796616 1.364111 0.016242
v 0.335892 0.764844 -0.549108
v 0.693115 0.648325 -0.595212
v 0.720182 0.172300 -0.524006
v 0.940501 0.231267 -0.217030
v 0.920764 -0.182151 -0.176385
v 0.331114 -0.772911 -0.186419
v 0.250340 -0.846259 -0.120692
v 0.176806 -0.216107 -0.670696
v 0.538621 -0.453719 -0.408842
v 0.393836 -0.734746 -0.232790
v 0.311344 -0.414104 -0.556840
v 0.737552 -0.616733 -0.008579
v 0.193586 -0.641032 -0.474101
v 0.459233 0.040359 -0.686828
v 0.332235 0.364068 -0.657291
v 0.071329 -0.846167 0.256614
v 0.095845 -0.864026 -0.200120
v 0.918930 0.824433 0.015199
v 1.057264 0.852611 -0.081683
v 0.425492 -0.276423 -0.552937
v 0.431293 1.188823 -0.027610
v 0.750555 1.249949 -0.299565
v 1.058231 -0.271551 -0.000392
v 0.468275 -0.142682 0.798243
v 0.357624 -0.499821 0.675160
v 0.962351 -0.410611 0.051254
v 0.996281 -0.406455 -0.001495
v 1.064609 -0.213520 -0.000098
v 0.254802 -0.807495 0.039414
v 0.258417 -0.851668 0.002462
v 0.619788 0.432288 0.527820
v 1.056429 0.449001 0.009067
v 0.675583 0.989706 0.087663
v 1.014943 1.087720 -0.081927
v 0.816202 1.590515 -0.013978
v 0.559925 -0.283208 -0.487884
v 0.578689 0.892219 -0.549301
v 0.629423 0.292141 -0.628788
v 0.380766 -0.736439 -0.279236
v 0.487834 -0.791959 -0.012762
v 0.291059 -0.269639 -0.617991
v 0.118773 -0.865514 0.168181
v 0.158808 -0.874023 -0.145189
v -0.192991 -0.299608 0.996088
v -0.326676 1.089116 0.201440
v -0.840712 0.646407 0.169051
v -0.230628 -0.111723 1.022961
v -0.722106 -0.293150 0.427643
v -0.723154 -0.507820 -0.146924
v -0.518134 -0.611938 -0.270680
v -0.109701 -0.714861 0.473883
v -0.504000 -0.652688 0.208926
v -0.936940 -0.277698 -0.141205
v -0.269032 0.640063 0.561836
v -0.286537 0.185446 0.881811
v -0.772052 0.100078 0.463420
v -0.548398 1.242746 0.173302
v -0.980772 -0.005423 -0.141504
v -0.992870 1.138812 -0.022160
v -0.146761 -0.480617 -0.602457
v -0.511574 -0.212979 -0.569803
v -0.403837 0.236370 -0.693178
v -0.231276 0.412467 -0.647604
v -0.197167 -0.781225 -0.271269
v -0.418464 1.052181 -0.310117
v -0.909899 0.791269 -0.302104
v -0.308892 0.442674 0.720909
v 0.000000 0.207550 1.035810
v -0.551185 0.153052 0.700213
v -0.613726 0.699119 0.309930
v 0.000000 0.637881 0.303040
v -0.152125 -0.502376 0.841375
v -0.421765 -0.305565 0.783575
v 0.000000 -0.284467 1.136890
v -0.867433 0.400601 0.306009
v -0.757825 -0.112146 0.438555
v -0.484359 -0.050415 0.808243
v -1.058231 -0.271551 -0.000000
v -0.644348 -0.465733 0.370995
v -0.288649 -0.686208 0.383917
v 0.000000 -0.789649 0.417070
v -0.849982 -0.365780 -0.177936
v -0.165030 -0.829224 0.165750
v -0.591318 -0.563901 -0.214398
v -0.332357 -0.846830 -0.005854
v -0.737552 -0.616733 -0.008971
v -0.233450 -0.846830 0.002333
v 0.000000 0.207550 1.036594
v -0.370649 0.904865 0.314201
v -0.463776 1.244200 0.244765
v 0.000000 0.585915 0.726802
v -1.065070 0.092095 0.080058
v -1.008028 1.243204 -0.081702
v -0.796616 1.364111 0.016242
v -0.335892 0.764844 -0.549108
v -0.693115 0.648325 -0.595212
v -0.720182 0.172300 -0.524006
v 0.000000 0.526188 -0.327215
v -0.940501 0.231267 -0.217030
v -0.920764 -0.182151 -0.176385
v -0.331114 -0.772911 -0.186419
v -0.250340 -0.846259 -0.120692
v -0.176806 -0.216107 -0.670696
v -0.538621 -0.453719 -0.408842
v 0.000000 -0.479822 -0.677364
v -0.393836 -0.734746 -0.232790
v -0.311344 -0.414104 -0.556840
v -0.737552 -0.616733 -0.008579
v -0.193586 -0.641032 -0.474101
v -0.459233 0.040359 -0.686828
v -0.332235 0.364068 -0.657291
v 0.000000 0.036320 -0.679267
v 0.000000 -0.578980 0.831309
v 0.000000 -0.744948 -0.425752
v -0.071329 -0.846167 0.256614
v -0.095845 -0.864026 -0.200120
v -0.918930 0.824433 0.015199
v -1.057264 0.852611 -0.081683
v -0.425492 -0.276423 -0.552937
v -0.431293 1.188823 -0.027610
v -0.750555 1.249949 -0.299565
v -1.058231 -0.271551 -0.000392
v 0.000000 -0.448638 1.016109
v -0.468275 -0.142682 0.798243
v -0.357624 -0.499821 0.675160
v 0.000000 -0.080439 1.171427
v -0.962351 -0.410611 0.051254
v -0.996281 -0.406455 -0.001495
v -1.064609 -0.213520 -0.000098
v 0.000000 -0.873434 0.289207
v -0.254802 -0.807495 0.039414
v -0.258417 -0.851668 0.002462
v 0.000000 0.477897 0.858851
v -0.619788 0.432288 0.527820
v 0.000000 0.440747 0.894106
v 0.000000 0.632625 0.560500
v -1.056429 0.449001 0.009067
v -0.675583 0.989706 0.087663
v 0.000000 0.602222 -0.006044
v -1.014943 1.087720 -0.081927
v -0.816202 1.590515 -0.013978
v -0.559925 -0.283208 -0.487884
v 0.000000 0.355611 -0.578835
v -0.578689 0.892219 -0.549301
v -0.629423 0.292141 -0.628788
v -0.380766 -0.736439 -0.279236
v 0.000000 -0.862688 -0.276389
v -0.487834 -0.791959 -0.012762
v 0.000000 -0.289539 -0.691210
v -0.291059 -0.269639 -0.617991
v 0.000000 -0.688360 0.619345
v 0.000000 -0.607352 -0.601091
v -0.118773 -0.865514 0.168181
v -0.158808 -0.874023 -0.145189
vn 0.4980 -0.5554 0.6659
vn 0.5425 -0.5591 0.6270
vn 0.6534 -0.2417 0.7174
vn 0.5411 -0.1807 0.8214
vn -0.8094 0.5806 -0.0882
vn -0.7904 0.6100 0.0564
vn -0.7258 0.6859 -0.0529
vn 0.5304 0.4285 0.7315
vn 0.5833 0.4872 0.6499
vn 0.7357 0.3202 0.5969
vn 0.6183 0.1458 0.7723
vn 0.6622 -0.5052 0.5534
vn 0.7063 -0.4276 0.5642
vn 0.7846 -0.1652 0.5975
vn 0.7582 -0.2268 0.6114
vn 0.5267 -0.5719 -0.6289
vn 0.6390 -0.6056 -0.4742
vn 0.5087 -0.6741 -0.5355
vn 0.6211 -0.6750 -0.3982
vn 0.5967 -0.6237 -0.5049
vn 0.8058 -0.3944 -0.4418
vn 0.3589 -0.8241 0.4383
vn 0.3724 -0.8011 0.4686
vn 0.3599 -0.8316 0.4229
vn 0.3902 -0.8002 0.4553
vn 0.5167 -0.7618 0.3908
vn 0.3566 -0.8611 0.3624
vn 0.4919 -0.7698 0.4068
vn 0.3594 -0.8479 0.3897
vn 0.4423 -0.7736 0.4537
vn 0.5434 -0.7256 0.4221
vn 0.6578 -0.2475 -0.7114
vn 0.7597 -0.0976 -0.6429
vn 0.6673 -0.5687 -0.4809
vn 0.4198 0.5968 0.6838
vn 0.4380 0.5020 0.7457
vn -0.0251 0.8017 0.5972
vn 0.5017 0.3302 0.7995
vn -0.6183 0.1458 0.7723
vn 0.5237 0.3838 0.7606
vn 0.4402 0.4569 0.7730
vn 0.7041 0.1901 0.6842
vn 0.7390 0.1102 0.6646
vn 0.7833 -0.1471 0.6040
vn 0.7903 -0.1432 0.5957
vn 0.8097 0.0944 0.5793
vn 0.5681 0.0070 0.8229
vn 0.5632 0.0112 0.8262
vn 0.5671 0.0129 0.8235
vn 0.9183 -0.0219 -0.3953
vn 0.8667 0.0103 -0.4987
vn 0.6721 -0.1042 -0.7331
vn 0.2986 0.0658 0.9521
vn 0.5592 0.0888 0.8243
vn 0.9603 0.1211 0.2512
vn 0.4958 0.1785 0.8499
vn 0.3301 -0.2919 -0.8977
vn 0.4586 -0.5047 -0.7314
vn 0.4100 -0.4831 -0.7736
vn 0.3165 -0.1887 -0.9296
vn 0.4010 -0.5192 -0.7548
vn 0.2846 -0.3481 -0.8932
vn 0.5960 -0.2289 -0.7697
vn 0.6718 -0.3179 -0.6691
vn 0.2642 0.0435 -0.9635
vn 0.0957 -0.1671 -0.9813
vn -0.0536 0.0374 -0.9979
vn -0.0010 0.2145 -0.9767
vn -0.3409 0.3154 -0.8856
vn -0.0875 0.2604 -0.9615
vn 0.0072 0.0596 -0.9982
vn 0.3357 -0.8468 -0.4126
vn 0.3428 -0.8033 -0.4870
vn 0.3318 -0.7688 -0.5467
vn 0.2729 -0.7741 -0.5712
vn 0.1870 -0.8534 -0.4866
vn -0.6939 0.5810 -0.4255
vn -0.7801 0.5951 -0.1931
vn -0.5486 0.6760 -0.4921
vn -0.3552 0.6495 -0.6723
vn 0.6147 0.3303 -0.7163
vn 0.8350 0.1052 -0.5401
vn 0.8759 -0.0603 -0.4788
vn 0.8158 -0.1701 -0.5528
vn 0.7917 -0.0461 -0.6092
vn 0.6276 0.2943 -0.7208
vn -0.4980 -0.5554 0.6659
vn -0.5425 -0.5591 0.6270
vn -0.6534 -0.2417 0.7174
vn -0.5411 -0.1807 0.8214
vn 0.8094 0.5806 -0.0882
vn 0.7904 0.6100 0.0564
vn 0.7258 0.6859 -0.0529
vn -0.5304 0.4285 0.7315
vn -0.5833 0.4872 0.6499
vn -0.7357 0.3202 0.5969
vn 0.5695 0.2317 0.7887
vn -0.3134 0.6746 0.6683
vn 0.3134 0.6746 0.6683
vn -0.6622 -0.5052 0.5534
vn -0.7063 -0.4276 0.5642
vn -0.7846 -0.1652 0.5975
vn -0.7582 -0.2268 0.6114
vn -0.5267 -0.5719 -0.6289
vn -0.6390 -0.6056 -0.4742
vn -0.5087 -0.6741 -0.5355
vn -0.6211 -0.6750 -0.3982
vn -0.5967 -0.6237 -0.5049
vn -0.8058 -0.3944 -0.4418
vn -0.3589 -0.8241 0.4383
vn -0.3724 -0.8011 0.4686
vn -0.3599 -0.8316 0.4229
vn -0.3902 -0.8002 0.4553
vn -0.5167 -0.7618 0.3908
vn -0.3566 -0.8611 0.3624
vn -0.4919 -0.7698 0.4068
vn -0.3594 -0.8479 0.3897
vn -0.4423 -0.7736 0.4537
vn -0.5434 -0.7256 0.4221
vn -0.6578 -0.2475 -0.7114
vn -0.7597 -0.0976 -0.6429
vn -0.6673 -0.5687 -0.4809
vn -0.4198 0.5968 0.6838
vn -0.4380 0.5020 0.7457
vn 0.0251 0.8017 0.5972
vn -0.5017 0.3302 0.7995
vn -0.7390 0.1102 0.6646
vn -0.5237 0.3838 0.7606
vn -0.4402 0.4569 0.7730
vn -0.7041 0.1901 0.6842
vn -0.5695 0.2317 0.7887
vn -0.7833 -0.1471 0.6040
vn -0.7903 -0.1432 0.5957
vn -0.8097 0.0944 0.5793
vn -0.5681 0.0070 0.8229
vn -0.5632 0.0112 0.8262
vn -0.5671 0.0129 0.8235
vn -0.9183 -0.0219 -0.3953
vn -0.8667 0.0103 -0.4987
vn -0.6721 -0.1042 -0.7331
vn -0.2986 0.0658 0.9521
vn -0.5592 0.0888 0.8243
vn -0.9603 0.1211 0.2512
vn -0.4958 0.1785 0.8499
vn -0.3301 -0.2919 -0.8977
vn -0.4586 -0.5047 -0.7314
vn -0.4100 -0.4831 -0.7736
vn -0.3165 -0.1887 -0.9296
vn -0.4010 -0.5192 -0.7548
vn -0.2846 -0.3481 -0.8932
vn -0.5960 -0.2289 -0.7697
vn -0.6718 -0.3179 -0.6691
vn -0.2642 0.0435 -0.9635
vn -0.0957 -0.1671 -0.9813
vn 0.0536 0.0374 -0.9979
vn 0.0010 0.2145 -0.9767
vn 0.3409 0.3154 -0.8856
vn 0.0875 0.2604 -0.9615
vn -0.0072 0.0596 -0.9982
vn -0.3357 -0.8468 -0.4126
vn -0.3428 -0.8033 -0.4870
vn -0.3318 -0.7688 -0.5467
vn -0.2729 -0.7741 -0.5712
vn -0.1870 -0.8534 -0.4866
vn 0.6939 0.5810 -0.4255
vn 0.7801 0.5951 -0.1931
vn 0.5486 0.6760 -0.4921
vn 0.3552 0.6495 -0.6723
vn -0.6147 0.3303 -0.7163
vn -0.8350 0.1052 -0.5401
vn -0.8759 -0.0603 -0.4788
vn -0.8158 -0.1701 -0.5528
vn -0.7917 -0.0461 -0.6092
vn -0.6276 0.2943 -0.7208
vn 0.0000 -0.9959 0.0902
vn 0.0000 -0.9995 0.0314
vn 0.0000 -0.9963 -0.0859
usemtl Material.001
s off
f 1//1 119//1 168//1 27//1
f 1//2 27//2 70//2 28//2
f 1//3 28//3 69//3 4//3
f 1//4 4//4 171//4 119//4
f 2//5 66//5 184//5 116//5
f 2//6 116//6 181//6 42//6
f 2//7 42//7 80//7 66//7
f 3//8 63//8 78//8 26//8
f 3//9 26//9 76//9 29//9
f 3//10 29//10 77//10 63//10
f 4//11 69//11 31//11 12//11
f 5//12 28//12 70//12 33//12
f 5//13 33//13 72//13 32//13
f 5//14 32//14 73//14 30//14
f 5//15 30//15 69//15 28//15
f 6//16 37//16 81//16 35//16
f 6//17 35//17 71//17 39//17
f 6//18 39//18 85//18 37//18
f 7//19 37//19 85//19 55//19
f 7//20 55//20 84//20 54//20
f 7//21 54//21 81//21 37//21
f 8//22 34//22 70//22 27//22
f 8//23 27//23 168//23 158//23
f 8//24 158//24 196//24 126//24
f 8//25 126//25 175//25 61//25
f 8//26 61//26 87//26 36//26
f 8//27 36//27 75//27 34//27
f 9//28 33//28 70//28 34//28
f 9//29 34//29 75//29 38//29
f 9//30 38//30 85//30 57//30
f 9//31 57//31 72//31 33//31
f 10//32 35//32 81//32 50//32
f 10//33 50//33 73//33 68//33
f 10//34 68//34 71//34 35//34
f 11//35 24//35 76//35 26//35
f 11//36 26//36 78//36 41//36
f 11//37 41//37 181//37 136//37
f 12//38 113//38 171//38 4//38
f 92//39 100//39 122//39 169//39
f 12//40 25//40 76//40 24//40
f 12//41 24//41 180//41 113//41
f 13//42 29//42 76//42 25//42
f 25//43 31//43 13//43
f 13//44 31//44 69//44 30//44
f 13//45 30//45 73//45 43//45
f 13//46 43//46 77//46 29//46
f 14//47 41//47 78//47 45//47
f 14//48 45//48 80//48 42//48
f 14//49 42//49 181//49 41//49
f 15//50 49//50 77//50 43//50
f 15//51 43//51 73//51 50//51
f 15//52 50//52 81//52 49//52
f 16//53 45//53 78//53 63//53
f 16//54 63//54 77//54 64//54
f 16//55 64//55 79//55 44//55
f 16//56 44//56 80//56 45//56
f 17//57 53//57 86//57 56//57
f 17//58 56//58 84//58 58//58
f 17//59 58//59 197//59 150//59
f 17//60 150//60 194//60 53//60
f 18//61 54//61 84//61 56//61
f 18//62 56//62 86//62 59//62
f 18//63 59//63 83//63 48//63
f 18//64 48//64 81//64 54//64
f 19//65 47//65 83//65 59//65
f 19//66 59//66 86//66 53//66
f 19//67 53//67 194//67 60//67
f 19//68 60//68 82//68 47//68
f 20//69 157//69 188//69 46//69
f 20//70 46//70 82//70 60//70
f 20//71 60//71 194//71 157//71
f 21//72 55//72 85//72 52//72
f 21//73 52//73 88//73 62//73
f 21//74 62//74 192//74 159//74
f 21//75 159//75 197//75 58//75
f 21//76 58//76 84//76 55//76
f 22//77 46//77 188//77 143//77
f 22//78 143//78 184//78 66//78
f 22//79 66//79 80//79 67//79
f 22//80 67//80 82//80 46//80
f 23//81 67//81 80//81 44//81
f 23//82 44//82 79//82 64//82
f 23//83 64//83 77//83 49//83
f 23//84 49//84 81//84 48//84
f 23//85 48//85 83//85 47//85
f 23//86 47//86 82//86 67//86
f 89//87 117//87 168//87 119//87
f 89//88 118//88 170//88 117//88
f 89//89 92//89 169//89 118//89
f 89//90 119//90 171//90 92//90
f 90//91 116//91 184//91 165//91
f 90//92 135//92 181//92 116//92
f 90//93 165//93 186//93 135//93
f 91//94 115//94 183//94 162//94
f 91//95 120//95 179//95 115//95
f 91//96 162//96 182//96 120//96
f 25//97 12//97 31//97
f 133//98 178//98 136//98 99//98 112//98 180//98
f 136//99 178//99 133//99 180//99 24//99 11//99
f 93//100 124//100 170//100 118//100
f 93//101 123//101 173//101 124//101
f 93//102 121//102 174//102 123//102
f 93//103 118//103 169//103 121//103
f 94//104 127//104 187//104 129//104
f 94//105 131//105 172//105 127//105
f 94//106 129//106 193//106 131//106
f 95//107 151//107 193//107 129//107
f 95//108 149//108 191//108 151//108
f 95//109 129//109 187//109 149//109
f 96//110 117//110 170//110 125//110
f 96//111 158//111 168//111 117//111
f 96//112 126//112 196//112 158//112
f 96//113 160//113 175//113 126//113
f 96//114 128//114 198//114 160//114
f 96//115 125//115 177//115 128//115
f 97//116 125//116 170//116 124//116
f 97//117 130//117 177//117 125//117
f 97//118 153//118 193//118 130//118
f 97//119 124//119 173//119 153//119
f 98//120 145//120 187//120 127//120
f 98//121 167//121 174//121 145//121
f 98//122 127//122 172//122 167//122
f 99//123 115//123 179//123 112//123
f 99//124 134//124 183//124 115//124
f 99//125 136//125 181//125 134//125
f 100//126 92//126 171//126 113//126
f 114//127 101//127 122//127
f 100//128 112//128 179//128 114//128
f 100//129 113//129 180//129 112//129
f 101//130 114//130 179//130 120//130
f 114//131 122//131 100//131
f 101//132 121//132 169//132 122//132
f 101//133 137//133 174//133 121//133
f 101//134 120//134 182//134 137//134
f 102//135 139//135 183//135 134//135
f 102//136 135//136 186//136 139//136
f 102//137 134//137 181//137 135//137
f 103//138 137//138 182//138 144//138
f 103//139 145//139 174//139 137//139
f 103//140 144//140 187//140 145//140
f 104//141 162//141 183//141 139//141
f 104//142 163//142 182//142 162//142
f 104//143 138//143 185//143 163//143
f 104//144 139//144 186//144 138//144
f 105//145 152//145 195//145 148//145
f 105//146 154//146 191//146 152//146
f 105//147 150//147 197//147 154//147
f 105//148 148//148 194//148 150//148
f 106//149 152//149 191//149 149//149
f 106//150 155//150 195//150 152//150
f 106//151 142//151 190//151 155//151
f 106//152 149//152 187//152 142//152
f 107//153 155//153 190//153 141//153
f 107//154 148//154 195//154 155//154
f 107//155 156//155 194//155 148//155
f 107//156 141//156 189//156 156//156
f 108//157 140//157 188//157 157//157
f 108//158 156//158 189//158 140//158
f 108//159 157//159 194//159 156//159
f 109//160 147//160 193//160 151//160
f 109//161 161//161 199//161 147//161
f 109//162 159//162 192//162 161//162
f 109//163 154//163 197//163 159//163
f 109//164 151//164 191//164 154//164
f 110//165 143//165 188//165 140//165
f 110//166 165//166 184//166 143//166
f 110//167 166//167 186//167 165//167
f 110//168 140//168 189//168 166//168
f 111//169 138//169 186//169 166//169
f 111//170 163//170 185//170 138//170
f 111//171 144//171 182//171 163//171
f 111//172 142//172 187//172 144//172
f 111//173 141//173 190//173 142//173
f 111//174 166//174 189//174 141//174
f 175//175 160//175 198//175 87//175 61//175
f 87//176 198//176 128//176 177//176 147//176 199//176 161//176 192//176 62//176 88//176 52//176 75//176 36//176
f 38//177 75//177 177//177 130//177 193//177 147//177 52//177 85//177
l 75 40
l 40 74
l 171 133
l 74 51
l 51 84
l 86 65
l 65 81
l 177 132
l 132 176
l 176 146
l 146 191
l 195 164
l 164 187
