# Blender v2.78 (sub 0) OBJ File: 'cat_model right hand.blend'
# www.blender.org
mtllib cat_model right hand.mtl
o Plane.002
v -1.423689 1.078444 -0.036055
v -1.481367 1.201542 -0.039130
v -1.500920 1.200867 0.074291
v -1.443242 1.077769 0.077365
v -1.632446 1.189100 -0.032610
v -1.649317 1.188517 0.068193
v -1.609404 1.035251 0.070846
v -1.592533 1.035833 -0.029957
v -1.783031 0.982499 0.058877
v -1.769761 0.982957 -0.024990
v -1.817722 1.126424 -0.027077
v -1.830993 1.125966 0.056791
v -1.907792 1.002178 0.012682
v -1.335788 1.094924 -0.037571
v -1.415653 1.228486 0.075807
v -1.356008 1.094226 0.078986
v -1.395433 1.229184 -0.040750
v -1.509850 1.059551 -0.033773
v -1.580653 1.183970 0.072009
v -1.528399 1.058911 0.074925
v -1.562104 1.184610 -0.036689
v -1.434419 1.055100 0.021790
v -1.432266 1.132393 -0.066313
v -1.520937 1.239747 0.017178
v -1.461596 1.131381 0.103818
v -1.677312 1.009549 -0.026425
v -1.726300 1.180514 0.063052
v -1.692275 1.009033 0.065404
v -1.711338 1.181031 -0.028778
v -1.597471 1.091035 -0.057021
v -1.661661 1.248702 0.017665
v -1.622777 1.090162 0.094184
v -1.601791 1.018802 0.021644
v -1.852411 0.974390 -0.015380
v -1.909466 1.056109 0.042353
v -1.861571 0.974074 0.043794
v -1.900305 1.056425 -0.016820
v -1.810029 1.031419 0.079645
v -1.764707 0.969561 0.016621
v -1.790123 1.032106 -0.046157
v -1.836649 1.184761 0.013491
v -1.436352 1.268692 0.017057
v -1.374988 1.154889 0.106212
v -1.344658 1.155936 -0.068623
v -1.346884 1.067303 0.021826
v -1.598410 1.227514 0.017360
v -1.545195 1.109322 0.100212
v -1.517372 1.110282 -0.062835
v -1.520029 1.039925 0.021735
v -1.733478 1.251666 0.016804
v -1.706876 1.066621 0.086930
v -1.684432 1.067396 -0.050814
v -1.682439 0.994444 0.020333
v -1.892130 1.103845 0.012633
v -1.866939 1.015085 0.059424
v -1.852898 1.015569 -0.030449
v -1.828241 0.967162 0.014841
vn 0.1468 -0.9169 -0.3712
vn 0.0853 -0.4587 -0.8845
vn 0.0859 -0.4812 -0.8724
vn 0.1804 -0.9303 -0.3194
vn -0.1076 0.2920 -0.9504
vn -0.2434 0.7132 -0.6574
vn -0.1482 0.7455 -0.6498
vn -0.1017 0.2875 -0.9524
vn -0.2561 0.7541 0.6047
vn -0.1185 0.3265 0.9377
vn -0.1102 0.3198 0.9411
vn -0.1510 0.7705 0.6193
vn 0.0720 -0.4047 0.9116
vn 0.1432 -0.8973 0.4175
vn 0.1758 -0.9097 0.3762
vn 0.0707 -0.4250 0.9024
vn 0.9009 0.4040 0.1587
vn 0.1232 0.7240 0.6787
vn -0.0913 0.2677 0.9592
vn -0.1147 0.2036 0.9723
vn -0.0525 0.5873 0.8076
vn 0.0516 -0.4064 0.9122
vn 0.2401 -0.9052 0.3507
vn 0.2643 -0.9005 0.3454
vn 0.0371 -0.3622 0.9314
vn 0.0459 -0.3531 0.9344
vn 0.2457 -0.8990 0.3626
vn 0.0379 -0.9551 0.2937
vn -0.1567 -0.4185 0.8946
vn -0.3355 0.5118 0.7909
vn -0.1452 0.1896 0.9711
vn -0.3207 0.1263 0.9387
vn -0.6201 0.4887 0.6138
vn -0.6480 -0.3666 0.6676
vn -0.0874 0.2429 -0.9661
vn 0.1217 0.7451 -0.6557
vn -0.0358 0.5832 -0.8115
vn -0.0949 0.1868 -0.9778
vn 0.2473 -0.9296 -0.2733
vn 0.0692 -0.4607 -0.8849
vn 0.0668 -0.4074 -0.9108
vn 0.2794 -0.9240 -0.2610
vn 0.2736 -0.9155 -0.2950
vn 0.0875 -0.3711 -0.9244
vn -0.0924 -0.3890 -0.9166
vn 0.0556 -0.9534 -0.2964
vn -0.1004 0.1676 -0.9807
vn -0.2686 0.4744 -0.8383
vn -0.5231 0.4329 -0.7341
vn -0.2344 0.1038 -0.9666
vn -0.5339 -0.3254 -0.7805
vn -0.9771 0.1505 -0.1505
vn -0.4005 -0.9139 -0.0669
usemtl Material.002
s off
f 1//1 14//1 45//1 22//1
f 1//2 23//2 44//2 14//2
f 1//3 18//3 48//3 23//3
f 1//4 22//4 49//4 18//4
f 2//5 17//5 44//5 23//5
f 2//6 24//6 42//6 17//6
f 2//7 21//7 46//7 24//7
f 2//8 23//8 48//8 21//8
f 3//9 15//9 42//9 24//9
f 3//10 25//10 43//10 15//10
f 3//11 19//11 47//11 25//11
f 3//12 24//12 46//12 19//12
f 4//13 16//13 43//13 25//13
f 4//14 22//14 45//14 16//14
f 4//15 20//15 49//15 22//15
f 4//16 25//16 47//16 20//16
f 14//17 44//17 17//17 42//17 15//17 43//17 16//17 45//17
usemtl Material.003
f 6//18 19//18 46//18 31//18
f 6//19 32//19 47//19 19//19
f 6//20 27//20 51//20 32//20
f 6//21 31//21 50//21 27//21
f 7//22 20//22 47//22 32//22
f 7//23 33//23 49//23 20//23
f 7//24 28//24 53//24 33//24
f 7//25 32//25 51//25 28//25
f 9//26 28//26 51//26 38//26
f 9//27 39//27 53//27 28//27
f 9//28 36//28 57//28 39//28
f 9//29 38//29 55//29 36//29
f 12//30 27//30 50//30 41//30
f 12//31 38//31 51//31 27//31
f 12//32 35//32 55//32 38//32
f 12//33 41//33 54//33 35//33
f 13//34 36//34 55//34 35//34
usemtl Material.004
f 5//35 21//35 48//35 30//35
f 5//36 31//36 46//36 21//36
f 5//37 29//37 50//37 31//37
f 5//38 30//38 52//38 29//38
f 8//39 18//39 49//39 33//39
f 8//40 30//40 48//40 18//40
f 8//41 26//41 52//41 30//41
f 8//42 33//42 53//42 26//42
f 10//43 26//43 53//43 39//43
f 10//44 40//44 52//44 26//44
f 10//45 34//45 56//45 40//45
f 10//46 39//46 57//46 34//46
f 11//47 29//47 52//47 40//47
f 11//48 41//48 50//48 29//48
f 11//49 37//49 54//49 41//49
f 11//50 40//50 56//50 37//50
f 13//51 37//51 56//51 34//51
f 13//52 35//52 54//52 37//52
f 13//53 34//53 57//53 36//53
