# Blender v2.78 (sub 0) OBJ File: 'cat_model head.blend'
# www.blender.org
mtllib cat_model head.mtl
o Plane
v 0.192386 2.251556 1.001766
v 0.326072 3.640280 0.207118
v 0.840107 3.197571 0.174729
v 0.230023 2.439441 1.028640
v 0.192386 2.259360 0.955761
v 0.721502 2.258014 0.433321
v 0.722549 2.043344 -0.141246
v 0.517529 1.939226 -0.265002
v 0.109096 1.836303 0.479561
v 0.503395 1.898476 0.214604
v 0.936336 2.273466 -0.135527
v 0.268428 3.191227 0.567514
v 0.285933 2.736610 0.887489
v 0.771448 2.651242 0.469098
v 0.547794 3.793910 0.178980
v 0.980168 2.545741 -0.135826
v 0.992265 3.689976 -0.016482
v 0.146156 2.070548 -0.596779
v 0.510969 2.338186 -0.564125
v 0.403233 2.787534 -0.687500
v 0.230671 2.963631 -0.641926
v 0.196562 1.769940 -0.265591
v 0.417860 3.603345 -0.304439
v 0.909295 3.342433 -0.296426
v 0.385377 2.236414 0.860179
v 0.308287 2.993838 0.726587
v 0.550580 2.704217 0.705891
v 0.613122 3.250283 0.315609
v 0.151521 2.048788 0.847053
v 0.421160 2.245600 0.789253
v 0.866829 2.951765 0.311687
v 0.757220 2.439019 0.444234
v 0.152300 2.069256 0.862217
v 0.483754 2.500749 0.813921
v 1.057627 2.279613 0.005678
v 1.044872 2.163552 0.005286
v 0.675038 2.092618 0.428600
v 0.643743 2.085432 0.376673
v 0.288045 1.864956 0.389596
v 0.268206 1.863497 0.428600
v 0.849377 2.185384 -0.172257
v 0.164425 1.721940 0.171428
v 0.590714 1.987263 -0.208720
v 0.331753 1.704334 -0.000176
v 0.736947 1.934431 -0.003293
v 0.232845 1.704334 0.008011
v 0.370044 3.456029 0.319879
v 0.463171 3.795364 0.250443
v 1.064465 2.643259 0.085736
v 1.007423 3.794368 -0.076024
v 0.796011 3.915275 0.021920
v 0.335287 3.316008 -0.543429
v 0.692510 3.199489 -0.589533
v 0.719577 2.723464 -0.518327
v 0.939896 2.782431 -0.211352
v 0.920160 2.369013 -0.170707
v 0.330510 1.778253 -0.180741
v 0.249736 1.704905 -0.115014
v 0.176201 2.335057 -0.665018
v 0.538016 2.097445 -0.403164
v 0.393232 1.816418 -0.227112
v 0.310740 2.137060 -0.551161
v 0.736947 1.934431 -0.002901
v 0.192982 1.910132 -0.468423
v 0.458628 2.591523 -0.681150
v 0.331631 2.915232 -0.651613
v 0.070724 1.704997 0.262292
v 0.095241 1.687138 -0.194442
v 0.918325 3.375597 0.020877
v 1.056659 3.403775 -0.076005
v 0.424887 2.274741 -0.547259
v 0.430688 3.739987 -0.021931
v 0.749951 3.801113 -0.293887
v 1.057627 2.279613 0.005286
v 0.467670 2.408482 0.803921
v 0.037622 2.146305 0.914455
v 0.357020 2.051343 0.680838
v 0.337718 2.043565 0.748602
v 0.425462 2.343779 0.864116
v 0.961746 2.140553 0.056932
v 0.995677 2.144709 0.004183
v 1.064004 2.337644 0.005580
v 0.254197 1.743669 0.045092
v 0.257812 1.699497 0.008140
v 0.619183 2.983452 0.533498
v 1.055824 3.000165 0.014745
v 0.674979 3.540870 0.093341
v 1.014338 3.638884 -0.076249
v 0.815598 4.141679 -0.008300
v 0.559320 2.267956 -0.482205
v 0.578084 3.443383 -0.543623
v 0.628818 2.843306 -0.623110
v 0.380161 1.814725 -0.273558
v 0.487230 1.759205 -0.007084
v 0.290454 2.281525 -0.612313
v 0.118168 1.685651 0.173860
v 0.158203 1.677141 -0.139511
v -0.193595 2.251556 1.001766
v -0.327281 3.640280 0.207118
v -0.841316 3.197571 0.174729
v -0.231232 2.439441 1.028640
v -0.193595 2.259360 0.955761
v -0.722711 2.258014 0.433321
v -0.723759 2.043344 -0.141246
v -0.518739 1.939226 -0.265002
v -0.110306 1.836303 0.479561
v -0.504605 1.898476 0.214604
v -0.937545 2.273466 -0.135527
v -0.269637 3.191227 0.567514
v -0.287142 2.736610 0.887489
v -0.772657 2.651242 0.469098
v -0.549003 3.793910 0.178980
v -0.981377 2.545741 -0.135826
v -0.993475 3.689976 -0.016482
v -0.147365 2.070548 -0.596779
v -0.512178 2.338186 -0.564125
v -0.404442 2.787534 -0.687500
v -0.231881 2.963631 -0.641926
v -0.197772 1.769940 -0.265591
v -0.419069 3.603345 -0.304439
v -0.910504 3.342433 -0.296426
v -0.386586 2.236414 0.860179
v -0.309496 2.993838 0.726587
v -0.000605 2.758714 1.041488
v -0.551790 2.704217 0.705891
v -0.614331 3.250283 0.315609
v -0.000605 3.189045 0.308718
v -0.152730 2.048788 0.847053
v -0.422369 2.245600 0.789253
v -0.000605 2.266697 1.142568
v -0.868038 2.951765 0.311687
v -0.758429 2.439019 0.444234
v -0.153509 2.069256 0.862217
v -0.000605 2.282306 1.051343
v -0.484963 2.500749 0.813921
v -1.058836 2.279613 0.005678
v -1.046081 2.163552 0.005286
v -0.676247 2.092618 0.428600
v -0.644953 2.085432 0.376673
v -0.289254 1.864956 0.389596
v -0.000605 1.761516 0.422748
v -0.269415 1.863497 0.428600
v -0.850587 2.185384 -0.172257
v -0.165635 1.721940 0.171428
v -0.591923 1.987263 -0.208720
v -0.332962 1.704334 -0.000176
v -0.738156 1.934431 -0.003293
v -0.234054 1.704334 0.008011
v -0.000605 2.758714 1.042272
v -0.371254 3.456029 0.319879
v -0.464381 3.795364 0.250443
v -0.000605 3.137079 0.732480
v -1.065674 2.643259 0.085736
v -1.008632 3.794368 -0.076024
v -0.797220 3.915275 0.021920
v -0.336497 3.316008 -0.543429
v -0.693720 3.199489 -0.589533
v -0.720786 2.723464 -0.518327
v -0.000605 3.077353 -0.321537
v -0.941105 2.782431 -0.211352
v -0.921369 2.369013 -0.170707
v -0.331719 1.778253 -0.180741
v -0.250945 1.704905 -0.115014
v -0.177410 2.335057 -0.665018
v -0.539225 2.097445 -0.403164
v -0.000605 2.071342 -0.671686
v -0.394441 1.816418 -0.227112
v -0.311949 2.137060 -0.551161
v -0.738156 1.934431 -0.002901
v -0.194191 1.910132 -0.468423
v -0.459838 2.591523 -0.681150
v -0.332840 2.915232 -0.651613
v -0.000605 2.587484 -0.673589
v -0.000605 1.972184 0.836987
v -0.000605 1.806216 -0.420074
v -0.071934 1.704997 0.262292
v -0.096450 1.687138 -0.194442
v -0.919534 3.375597 0.020877
v -1.057868 3.403775 -0.076005
v -0.426096 2.274741 -0.547259
v -0.431897 3.739987 -0.021931
v -0.751160 3.801113 -0.293887
v -0.000605 3.069643 0.852811
v -1.058836 2.279613 0.005286
v -0.000605 2.102526 1.021787
v -0.468879 2.408482 0.803921
v -0.038831 2.146305 0.914455
v -0.358229 2.051343 0.680838
v -0.000605 2.470725 1.177105
v -0.338927 2.043565 0.748602
v -0.426672 2.343779 0.864116
v -0.962955 2.140553 0.056932
v -0.996886 2.144709 0.004183
v -1.065213 2.337644 0.005580
v -0.000605 1.677730 0.294885
v -0.255406 1.743669 0.045092
v -0.259022 1.699497 0.008140
v -0.000605 3.029061 0.864529
v -0.620392 2.983452 0.533498
v -0.000605 2.991911 0.899785
v -0.000605 3.183789 0.566178
v -1.057033 3.000165 0.014745
v -0.676188 3.540870 0.093341
v -0.000605 3.153387 -0.000366
v -1.015548 3.638884 -0.076249
v -0.816807 4.141679 -0.008300
v -0.560529 2.267956 -0.482205
v -0.000605 2.906775 -0.573157
v -0.579294 3.443383 -0.543623
v -0.630028 2.843306 -0.623110
v -0.381370 1.814725 -0.273558
v -0.000605 1.688476 -0.270711
v -0.488439 1.759205 -0.007084
v -0.000605 2.261625 -0.685532
v -0.291663 2.281525 -0.612313
v -0.000605 1.862804 0.625023
v -0.000605 1.943812 -0.595413
v -0.119378 1.685651 0.173860
v -0.159413 1.677141 -0.139511
vn 0.4980 -0.5554 0.6659
vn 0.5425 -0.5591 0.6270
vn 0.6534 -0.2417 0.7174
vn 0.5411 -0.1807 0.8214
vn -0.8094 0.5806 -0.0882
vn -0.7904 0.6100 0.0564
vn -0.7258 0.6859 -0.0529
vn 0.5304 0.4285 0.7315
vn 0.5833 0.4872 0.6499
vn 0.7357 0.3202 0.5969
vn 0.6606 -0.1938 0.7253
vn -0.6453 -0.0046 -0.7639
vn -0.2002 0.5662 -0.7996
vn -0.3959 0.4667 -0.7909
vn -0.4485 0.3420 -0.8258
vn -0.3677 0.5032 -0.7821
vn 0.6622 -0.5052 0.5534
vn 0.7063 -0.4276 0.5642
vn 0.7846 -0.1652 0.5975
vn 0.7582 -0.2268 0.6114
vn 0.5267 -0.5719 -0.6289
vn 0.6390 -0.6056 -0.4742
vn 0.5087 -0.6741 -0.5355
vn 0.6211 -0.6750 -0.3982
vn 0.5967 -0.6237 -0.5049
vn 0.8058 -0.3944 -0.4418
vn 0.3589 -0.8241 0.4383
vn 0.3724 -0.8011 0.4686
vn 0.3599 -0.8316 0.4229
vn 0.3902 -0.8002 0.4553
vn 0.5167 -0.7618 0.3908
vn 0.3566 -0.8611 0.3624
vn 0.4919 -0.7698 0.4068
vn 0.3594 -0.8479 0.3897
vn 0.4423 -0.7736 0.4537
vn 0.5434 -0.7256 0.4221
vn 0.6578 -0.2475 -0.7114
vn 0.7597 -0.0976 -0.6429
vn 0.6673 -0.5687 -0.4809
vn 0.4260 0.5811 0.6935
vn 0.4198 0.5968 0.6838
vn 0.4380 0.5020 0.7457
vn -0.0251 0.8017 0.5972
vn 0.0139 0.8723 0.4888
vn 0.5017 0.3302 0.7995
vn 0.6226 0.1758 0.7626
vn 0.5237 0.3838 0.7606
vn 0.4402 0.4569 0.7730
vn 0.7041 0.1901 0.6842
vn 0.6786 0.1580 0.7173
vn 0.7833 -0.1471 0.6040
vn 0.7903 -0.1432 0.5957
vn 0.8097 0.0944 0.5793
vn 0.5681 0.0070 0.8229
vn 0.5632 0.0112 0.8262
vn 0.5671 0.0129 0.8235
vn 0.9183 -0.0219 -0.3953
vn 0.8667 0.0103 -0.4987
vn 0.6721 -0.1042 -0.7331
vn 0.2986 0.0658 0.9521
vn 0.5592 0.0888 0.8243
vn 0.9603 0.1211 0.2512
vn 0.4958 0.1785 0.8499
vn 0.3301 -0.2919 -0.8977
vn 0.4586 -0.5047 -0.7314
vn 0.4100 -0.4831 -0.7736
vn 0.3165 -0.1887 -0.9296
vn 0.4010 -0.5192 -0.7548
vn 0.2846 -0.3481 -0.8932
vn 0.5960 -0.2289 -0.7697
vn 0.6718 -0.3179 -0.6691
vn 0.2642 0.0435 -0.9635
vn 0.0957 -0.1671 -0.9813
vn -0.0536 0.0374 -0.9979
vn -0.0010 0.2145 -0.9767
vn -0.3409 0.3154 -0.8856
vn -0.0875 0.2604 -0.9615
vn 0.0072 0.0596 -0.9982
vn 0.3357 -0.8468 -0.4126
vn 0.3428 -0.8033 -0.4870
vn 0.3318 -0.7688 -0.5467
vn 0.2729 -0.7741 -0.5712
vn 0.1870 -0.8534 -0.4866
vn -0.6939 0.5810 -0.4255
vn -0.7801 0.5951 -0.1931
vn -0.5486 0.6760 -0.4921
vn -0.3552 0.6495 -0.6723
vn 0.6147 0.3303 -0.7163
vn 0.8350 0.1052 -0.5401
vn 0.8759 -0.0603 -0.4788
vn 0.8158 -0.1701 -0.5528
vn 0.7917 -0.0461 -0.6092
vn 0.6276 0.2943 -0.7208
vn -0.4980 -0.5554 0.6659
vn -0.5425 -0.5591 0.6270
vn -0.6534 -0.2417 0.7174
vn -0.5411 -0.1807 0.8214
vn 0.8094 0.5806 -0.0882
vn 0.7904 0.6100 0.0564
vn 0.7258 0.6859 -0.0529
vn -0.5304 0.4285 0.7315
vn -0.5833 0.4872 0.6499
vn -0.7357 0.3202 0.5969
vn -0.6606 -0.1938 0.7253
vn 0.6453 -0.0046 -0.7639
vn 0.2002 0.5662 -0.7996
vn 0.3959 0.4667 -0.7909
vn 0.4485 0.3420 -0.8258
vn 0.3677 0.5032 -0.7821
vn -0.6622 -0.5052 0.5534
vn -0.7063 -0.4276 0.5642
vn -0.7846 -0.1652 0.5975
vn -0.7582 -0.2268 0.6114
vn -0.5267 -0.5719 -0.6289
vn -0.6390 -0.6056 -0.4742
vn -0.5087 -0.6741 -0.5355
vn -0.6211 -0.6750 -0.3982
vn -0.5967 -0.6237 -0.5049
vn -0.8058 -0.3944 -0.4418
vn -0.3589 -0.8241 0.4383
vn -0.3724 -0.8011 0.4686
vn -0.3599 -0.8316 0.4229
vn -0.3902 -0.8002 0.4553
vn -0.5167 -0.7618 0.3908
vn -0.3566 -0.8611 0.3624
vn -0.4919 -0.7698 0.4068
vn -0.3594 -0.8479 0.3897
vn -0.4423 -0.7736 0.4537
vn -0.5434 -0.7256 0.4221
vn -0.6578 -0.2475 -0.7114
vn -0.7597 -0.0976 -0.6429
vn -0.6673 -0.5687 -0.4809
vn -0.4260 0.5811 0.6935
vn -0.4198 0.5968 0.6838
vn -0.4380 0.5020 0.7457
vn 0.0251 0.8017 0.5972
vn -0.0139 0.8723 0.4888
vn -0.5017 0.3302 0.7995
vn -0.6226 0.1758 0.7626
vn -0.5237 0.3838 0.7606
vn -0.4402 0.4569 0.7730
vn -0.7041 0.1901 0.6842
vn -0.6786 0.1580 0.7173
vn -0.7833 -0.1471 0.6040
vn -0.7903 -0.1432 0.5957
vn -0.8097 0.0944 0.5793
vn -0.5681 0.0070 0.8229
vn -0.5632 0.0112 0.8262
vn -0.5671 0.0129 0.8235
vn -0.9183 -0.0219 -0.3953
vn -0.8667 0.0103 -0.4987
vn -0.6721 -0.1042 -0.7331
vn -0.2986 0.0658 0.9521
vn -0.5592 0.0888 0.8243
vn -0.9603 0.1211 0.2512
vn -0.4958 0.1785 0.8499
vn -0.3301 -0.2919 -0.8977
vn -0.4586 -0.5047 -0.7314
vn -0.4100 -0.4831 -0.7736
vn -0.3165 -0.1887 -0.9296
vn -0.4010 -0.5192 -0.7548
vn -0.2846 -0.3481 -0.8932
vn -0.5960 -0.2289 -0.7697
vn -0.6718 -0.3179 -0.6691
vn -0.2642 0.0435 -0.9635
vn -0.0957 -0.1671 -0.9813
vn 0.0536 0.0374 -0.9979
vn 0.0010 0.2145 -0.9767
vn 0.3409 0.3154 -0.8856
vn 0.0875 0.2604 -0.9615
vn -0.0072 0.0596 -0.9982
vn -0.3357 -0.8468 -0.4126
vn -0.3428 -0.8033 -0.4870
vn -0.3318 -0.7688 -0.5467
vn -0.2729 -0.7741 -0.5712
vn -0.1870 -0.8534 -0.4866
vn 0.6939 0.5810 -0.4255
vn 0.7801 0.5951 -0.1931
vn 0.5486 0.6760 -0.4921
vn 0.3552 0.6495 -0.6723
vn -0.6147 0.3303 -0.7163
vn -0.8350 0.1052 -0.5401
vn -0.8759 -0.0603 -0.4788
vn -0.8158 -0.1701 -0.5528
vn -0.7917 -0.0461 -0.6092
vn -0.6276 0.2943 -0.7208
vn 0.0000 -0.9959 0.0902
vn 0.0000 -0.9995 0.0314
vn 0.0000 -0.9963 -0.0859
usemtl Material.001
s off
f 1//1 130//1 185//1 29//1
f 1//2 29//2 77//2 30//2
f 1//3 30//3 75//3 4//3
f 1//4 4//4 189//4 130//4
f 2//5 72//5 204//5 127//5
f 2//6 127//6 201//6 48//6
f 2//7 48//7 89//7 72//7
f 3//8 69//8 87//8 28//8
f 3//9 28//9 85//9 31//9
f 3//10 31//10 86//10 69//10
f 4//11 75//11 34//11
f 4//12 34//12 79//12
f 5//13 33//13 76//13 134//13
f 5//14 134//14 189//14 4//14
f 5//15 4//15 79//15 25//15
f 5//16 25//16 78//16 33//16
f 6//17 30//17 77//17 38//17
f 6//18 38//18 81//18 35//18
f 6//19 35//19 82//19 32//19
f 6//20 32//20 75//20 30//20
f 7//21 43//21 90//21 41//21
f 7//22 41//22 80//22 45//22
f 7//23 45//23 94//23 43//23
f 8//24 43//24 94//24 61//24
f 8//25 61//25 93//25 60//25
f 8//26 60//26 90//26 43//26
f 9//27 39//27 77//27 29//27
f 9//28 29//28 185//28 174//28
f 9//29 174//29 216//29 141//29
f 9//30 141//30 195//30 67//30
f 9//31 67//31 96//31 42//31
f 9//32 42//32 84//32 39//32
f 10//33 38//33 77//33 39//33
f 10//34 39//34 84//34 44//34
f 10//35 44//35 94//35 63//35
f 10//36 63//36 81//36 38//36
f 11//37 41//37 90//37 56//37
f 11//38 56//38 82//38 74//38
f 11//39 74//39 80//39 41//39
f 12//40 183//40 200//40 26//40
f 12//41 26//41 85//41 28//41
f 12//42 28//42 87//42 47//42
f 12//43 47//43 201//43 152//43
f 12//44 152//44 198//44 183//44
f 13//45 124//45 189//45 4//45
f 13//46 4//46 79//46 27//46
f 13//47 27//47 85//47 26//47
f 13//48 26//48 200//48 124//48
f 14//49 31//49 85//49 27//49
f 14//50 27//50 79//50 34//50
f 14//51 34//51 75//51 32//51
f 14//52 32//52 82//52 49//52
f 14//53 49//53 86//53 31//53
f 15//54 47//54 87//54 51//54
f 15//55 51//55 89//55 48//55
f 15//56 48//56 201//56 47//56
f 16//57 55//57 86//57 49//57
f 16//58 49//58 82//58 56//58
f 16//59 56//59 90//59 55//59
f 17//60 51//60 87//60 69//60
f 17//61 69//61 86//61 70//61
f 17//62 70//62 88//62 50//62
f 17//63 50//63 89//63 51//63
f 18//64 59//64 95//64 62//64
f 18//65 62//65 93//65 64//65
f 18//66 64//66 217//66 166//66
f 18//67 166//67 214//67 59//67
f 19//68 60//68 93//68 62//68
f 19//69 62//69 95//69 65//69
f 19//70 65//70 92//70 54//70
f 19//71 54//71 90//71 60//71
f 20//72 53//72 92//72 65//72
f 20//73 65//73 95//73 59//73
f 20//74 59//74 214//74 66//74
f 20//75 66//75 91//75 53//75
f 21//76 173//76 208//76 52//76
f 21//77 52//77 91//77 66//77
f 21//78 66//78 214//78 173//78
f 22//79 61//79 94//79 58//79
f 22//80 58//80 97//80 68//80
f 22//81 68//81 212//81 175//81
f 22//82 175//82 217//82 64//82
f 22//83 64//83 93//83 61//83
f 23//84 52//84 208//84 159//84
f 23//85 159//85 204//85 72//85
f 23//86 72//86 89//86 73//86
f 23//87 73//87 91//87 52//87
f 24//88 73//88 89//88 50//88
f 24//89 50//89 88//89 70//89
f 24//90 70//90 86//90 55//90
f 24//91 55//91 90//91 54//91
f 24//92 54//92 92//92 53//92
f 24//93 53//93 91//93 73//93
f 98//94 128//94 185//94 130//94
f 98//95 129//95 188//95 128//95
f 98//96 101//96 186//96 129//96
f 98//97 130//97 189//97 101//97
f 99//98 127//98 204//98 181//98
f 99//99 151//99 201//99 127//99
f 99//100 181//100 206//100 151//100
f 100//101 126//101 203//101 178//101
f 100//102 131//102 199//102 126//102
f 100//103 178//103 202//103 131//103
f 101//104 135//104 186//104
f 101//105 191//105 135//105
f 102//106 134//106 187//106 133//106
f 102//107 101//107 189//107 134//107
f 102//108 122//108 191//108 101//108
f 102//109 133//109 190//109 122//109
f 103//110 139//110 188//110 129//110
f 103//111 136//111 193//111 139//111
f 103//112 132//112 194//112 136//112
f 103//113 129//113 186//113 132//113
f 104//114 143//114 207//114 145//114
f 104//115 147//115 192//115 143//115
f 104//116 145//116 213//116 147//116
f 105//117 167//117 213//117 145//117
f 105//118 165//118 211//118 167//118
f 105//119 145//119 207//119 165//119
f 106//120 128//120 188//120 140//120
f 106//121 174//121 185//121 128//121
f 106//122 141//122 216//122 174//122
f 106//123 176//123 195//123 141//123
f 106//124 144//124 218//124 176//124
f 106//125 140//125 197//125 144//125
f 107//126 140//126 188//126 139//126
f 107//127 146//127 197//127 140//127
f 107//128 169//128 213//128 146//128
f 107//129 139//129 193//129 169//129
f 108//130 161//130 207//130 143//130
f 108//131 184//131 194//131 161//131
f 108//132 143//132 192//132 184//132
f 109//133 123//133 200//133 183//133
f 109//134 126//134 199//134 123//134
f 109//135 150//135 203//135 126//135
f 109//136 152//136 201//136 150//136
f 109//137 183//137 198//137 152//137
f 110//138 101//138 189//138 124//138
f 110//139 125//139 191//139 101//139
f 110//140 123//140 199//140 125//140
f 110//141 124//141 200//141 123//141
f 111//142 125//142 199//142 131//142
f 111//143 135//143 191//143 125//143
f 111//144 132//144 186//144 135//144
f 111//145 153//145 194//145 132//145
f 111//146 131//146 202//146 153//146
f 112//147 155//147 203//147 150//147
f 112//148 151//148 206//148 155//148
f 112//149 150//149 201//149 151//149
f 113//150 153//150 202//150 160//150
f 113//151 161//151 194//151 153//151
f 113//152 160//152 207//152 161//152
f 114//153 178//153 203//153 155//153
f 114//154 179//154 202//154 178//154
f 114//155 154//155 205//155 179//155
f 114//156 155//156 206//156 154//156
f 115//157 168//157 215//157 164//157
f 115//158 170//158 211//158 168//158
f 115//159 166//159 217//159 170//159
f 115//160 164//160 214//160 166//160
f 116//161 168//161 211//161 165//161
f 116//162 171//162 215//162 168//162
f 116//163 158//163 210//163 171//163
f 116//164 165//164 207//164 158//164
f 117//165 171//165 210//165 157//165
f 117//166 164//166 215//166 171//166
f 117//167 172//167 214//167 164//167
f 117//168 157//168 209//168 172//168
f 118//169 156//169 208//169 173//169
f 118//170 172//170 209//170 156//170
f 118//171 173//171 214//171 172//171
f 119//172 163//172 213//172 167//172
f 119//173 177//173 219//173 163//173
f 119//174 175//174 212//174 177//174
f 119//175 170//175 217//175 175//175
f 119//176 167//176 211//176 170//176
f 120//177 159//177 208//177 156//177
f 120//178 181//178 204//178 159//178
f 120//179 182//179 206//179 181//179
f 120//180 156//180 209//180 182//180
f 121//181 154//181 206//181 182//181
f 121//182 179//182 205//182 154//182
f 121//183 160//183 202//183 179//183
f 121//184 158//184 207//184 160//184
f 121//185 157//185 210//185 158//185
f 121//186 182//186 209//186 157//186
f 195//187 176//187 218//187 96//187 67//187
f 96//188 218//188 144//188 197//188 163//188 219//188 177//188 212//188 68//188 97//188 58//188 84//188 42//188
f 44//189 84//189 197//189 146//189 213//189 163//189 58//189 94//189
l 81 36
l 36 80
l 80 37
l 37 78
l 83 40
l 40 78
l 84 46
l 46 83
l 189 149
l 149 198
l 83 57
l 57 93
l 95 71
l 71 90
l 193 137
l 137 192
l 192 138
l 138 190
l 196 142
l 142 190
l 197 148
l 148 196
l 196 162
l 162 211
l 215 180
l 180 207
